# xmcd CD database file
#
# Track frame offsets:
#	150
#	28764
#	54444
#	71362
#	102589
#	125494
#	150868
#	178852
#
# Disc length: 3092 seconds
#
# Revision: 0
# Processed by: cddbd v1.5.2PL0 Copyright (c) Steve Scherf et al.
# Submitted via: CDex 1.70beta2
#
DISCID=640c1208
DTITLE=Yuri Honing - Symphonic
DYEAR=2006
DGENRE=Jazz
TTITLE0=Elegant People
TTITLE1=Atres da Porta
TTITLE2=Diana
TTITLE3=Paranoid Android
TTITLE4=Yasutani
TTITLE5=l'Avventura
TTITLE6=In a Silent Way
TTITLE7=Elegant People/Diana
EXTD=YEAR: 2006
EXTT0=
EXTT1=
EXTT2=
EXTT3=
EXTT4=
EXTT5=
EXTT6=
EXTT7=
PLAYORDER=
